<?xml version="1.0" encoding="UTF-8"?>
<svg id="Layer_1" data-name="Layer 1" xmlns="http://www.w3.org/2000/svg" viewBox="0 0 701.18 219.64">
  <defs>
    <style>
      .cls-1 {
        stroke-width: 0px;
      }
    </style>
  </defs>
  <g>
    <path class="cls-1" d="m66.66,214.36h-10.59l-2.8,4.77h-6.81l17.53-28.99h7.13l2.88,28.99h-6.93l-.39-4.77Zm-.2-4.49l-.83-12.45-7.13,12.45h7.96Z"/>
    <path class="cls-1" d="m86.47,210.54c0-7.21,5.12-13.31,12.37-13.31,2.99,0,5.04.79,6.77,2.05l-1.1,4.96c-1.58-1.14-3.39-1.61-5.28-1.61-4.21,0-6.54,3.5-6.54,6.93s2.24,4.61,4.84,4.61c1.69,0,3.31-.32,5.16-1.22l-1.54,5.51c-1.69.83-3.47,1.14-5.43,1.14-4.88,0-9.26-2.32-9.26-9.06Z"/>
    <path class="cls-1" d="m113.44,205.66l-3.58,13.47h-6.03l5.75-21.38h4.14l.91,2.8c2.44-2.32,5-3.23,7.56-3.23l-1.77,6.62c-2.21.04-4.77.71-6.97,1.73Z"/>
    <path class="cls-1" d="m129.04,219.6c-5.12,0-9.06-2.36-9.06-8.9,0-7.8,5.51-13.47,11.74-13.47,5.36,0,7.88,3.23,7.88,8.98,0,1.03-.12,2.09-.28,3.23h-13.27v.16c0,3.86,2.01,4.96,4.88,4.96,2.36,0,4.53-.63,6.34-1.62l-2.25,5.32c-1.73.95-3.58,1.34-5.99,1.34Zm-2.44-13.31h8.35c-.12-2.84-1.22-4.29-3.5-4.29-2.01,0-3.94,1.65-4.84,4.29Z"/>
    <path class="cls-1" d="m154.59,217.36c-1.73,1.57-3.58,2.21-5.87,2.21-4.61,0-7.92-2.99-7.92-8.98,0-7.52,4.8-13.35,12.44-13.35,2.56,0,4.84.63,6.58,1.81l1.3-1.3h3.31l-5.71,21.38h-3.39l-.75-1.77Zm-3.47-3.07c1.1,0,2.05-.24,3.19-1.02l2.76-10.32c-.98-.39-2.01-.55-3.39-.55-4.8,0-6.73,3.58-6.73,7.33,0,3.19,1.54,4.57,4.17,4.57Z"/>
    <path class="cls-1" d="m171.13,219.56c-3.43,0-5.75-1.42-5.75-5.39,0-1.18.2-2.56.63-4.25l1.97-7.33h-2.25l1.34-4.84h2.21l1.54-5.75h5.99l-1.54,5.75h4.53l-1.3,4.84h-4.53l-2.17,8.07c-.16.55-.24,1.02-.24,1.46,0,1.26.71,1.81,2.21,1.81.71,0,1.5-.08,2.21-.32l-1.93,5.47c-1.06.36-1.93.47-2.91.47Z"/>
    <path class="cls-1" d="m178.81,210.39c0-7.05,4.73-13.15,12.48-13.15,6.26,0,9.18,3.54,9.18,8.98,0,6.89-4.45,13.43-12.41,13.43-6.14,0-9.25-3.39-9.25-9.25Zm15.63-3.43c0-3.11-1.38-4.65-3.78-4.65-3.35,0-5.79,3.15-5.79,7.4,0,3.51,1.54,4.84,3.9,4.84,3.23,0,5.67-3.15,5.67-7.6Z"/>
    <path class="cls-1" d="m209.84,205.66l-3.58,13.47h-6.03l5.75-21.38h4.14l.91,2.8c2.44-2.32,5-3.23,7.56-3.23l-1.77,6.62c-2.21.04-4.77.71-6.97,1.73Z"/>
    <path class="cls-1" d="m224.92,210.54c0-7.21,5.12-13.31,12.37-13.31,2.99,0,5.04.79,6.77,2.05l-1.1,4.96c-1.58-1.14-3.39-1.61-5.28-1.61-4.21,0-6.54,3.5-6.54,6.93s2.24,4.61,4.84,4.61c1.69,0,3.31-.32,5.16-1.22l-1.54,5.51c-1.69.83-3.47,1.14-5.43,1.14-4.88,0-9.26-2.32-9.26-9.06Z"/>
    <path class="cls-1" d="m243.71,210.39c0-7.05,4.73-13.15,12.48-13.15,6.26,0,9.18,3.54,9.18,8.98,0,6.89-4.45,13.43-12.41,13.43-6.14,0-9.25-3.39-9.25-9.25Zm15.63-3.43c0-3.11-1.38-4.65-3.78-4.65-3.35,0-5.79,3.15-5.79,7.4,0,3.51,1.54,4.84,3.9,4.84,3.23,0,5.67-3.15,5.67-7.6Z"/>
    <path class="cls-1" d="m273.67,188.53h5.99l-8.19,30.6h-5.99l8.19-30.6Z"/>
    <path class="cls-1" d="m284.3,188.53h5.99l-8.19,30.6h-5.99l8.19-30.6Z"/>
    <path class="cls-1" d="m296.87,219.6c-5.12,0-9.06-2.36-9.06-8.9,0-7.8,5.51-13.47,11.74-13.47,5.36,0,7.88,3.23,7.88,8.98,0,1.03-.12,2.09-.28,3.23h-13.27v.16c0,3.86,2.01,4.96,4.88,4.96,2.36,0,4.53-.63,6.34-1.62l-2.25,5.32c-1.73.95-3.58,1.34-5.99,1.34Zm-2.44-13.31h8.35c-.12-2.84-1.22-4.29-3.5-4.29-2.01,0-3.94,1.65-4.84,4.29Z"/>
    <path class="cls-1" d="m308.48,210.54c0-7.21,5.12-13.31,12.37-13.31,2.99,0,5.04.79,6.77,2.05l-1.1,4.96c-1.58-1.14-3.39-1.61-5.28-1.61-4.21,0-6.54,3.5-6.54,6.93s2.25,4.61,4.84,4.61c1.69,0,3.31-.32,5.16-1.22l-1.54,5.51c-1.69.83-3.47,1.14-5.44,1.14-4.88,0-9.25-2.32-9.25-9.06Z"/>
    <path class="cls-1" d="m334.32,219.56c-3.43,0-5.75-1.42-5.75-5.39,0-1.18.2-2.56.63-4.25l1.97-7.33h-2.24l1.34-4.84h2.21l1.54-5.75h5.99l-1.54,5.75h4.53l-1.3,4.84h-4.53l-2.17,8.07c-.16.55-.24,1.02-.24,1.46,0,1.26.71,1.81,2.21,1.81.71,0,1.5-.08,2.21-.32l-1.93,5.47c-1.06.36-1.93.47-2.91.47Z"/>
    <path class="cls-1" d="m346.48,197.74h5.99l-5.71,21.38h-6.03l5.75-21.38Zm2.44-9.96h6.5l-1.65,6.03h-6.46l1.62-6.03Z"/>
    <path class="cls-1" d="m362.28,219.13h-5.08l-2.52-21.38h6.22l1.22,12.84,8.11-12.84h6.38l-14.33,21.38Z"/>
    <path class="cls-1" d="m383.11,219.6c-5.12,0-9.06-2.36-9.06-8.9,0-7.8,5.51-13.47,11.74-13.47,5.36,0,7.88,3.23,7.88,8.98,0,1.03-.12,2.09-.28,3.23h-13.27v.16c0,3.86,2.01,4.96,4.88,4.96,2.36,0,4.53-.63,6.34-1.62l-2.25,5.32c-1.73.95-3.58,1.34-5.99,1.34Zm-2.44-13.31h8.35c-.12-2.84-1.22-4.29-3.5-4.29-2.01,0-3.94,1.65-4.84,4.29Z"/>
  </g>
  <g>
    <path class="cls-1" d="m305.38,69.46c-4.6-2.76-10.1-4.14-16.5-4.14-6.84,0-12.58,1.49-17.21,4.47-4.63,2.98-8.31,7.05-11.04,12.19-2.72,5.15-4.52,11.11-5.41,17.88h65.33c-.37-7.21-1.84-13.39-4.41-18.54-2.58-5.15-6.16-9.1-10.76-11.86Z"/>
    <path class="cls-1" d="m74.03,114.09c-3.13.81-6.23,1.51-9.32,2.1-6.25,1.1-11.64,2.41-16.17,3.92-4.52,1.51-8.02,3.64-10.48,6.4-2.47,2.76-3.7,6.68-3.7,11.75,0,4.71,1.07,8.37,3.2,10.98,2.13,2.61,4.93,4.43,8.39,5.46,3.46,1.03,7.1,1.54,10.92,1.54,7.36,0,13.46-1.51,18.32-4.52,4.85-3.02,8.5-6.79,10.92-11.31,2.43-4.52,3.64-9.07,3.64-13.63v-18.76c-1.84,1.18-4.14,2.28-6.9,3.31-2.76,1.03-5.7,1.95-8.83,2.76Z"/>
    <path class="cls-1" d="m574.83,114.09c-3.13.81-6.23,1.51-9.32,2.1-6.25,1.1-11.64,2.41-16.17,3.92-4.52,1.51-8.02,3.64-10.48,6.4-2.47,2.76-3.7,6.68-3.7,11.75,0,4.71,1.07,8.37,3.2,10.98,2.13,2.61,4.93,4.43,8.39,5.46,3.46,1.03,7.1,1.54,10.92,1.54,7.35,0,13.46-1.51,18.32-4.52,4.86-3.02,8.5-6.79,10.92-11.31,2.43-4.52,3.64-9.07,3.64-13.63v-18.76c-1.84,1.18-4.14,2.28-6.9,3.31-2.76,1.03-5.7,1.95-8.83,2.76Z"/>
    <g>
      <path class="cls-1" d="m662.94,16.06h-2.52l-6.6,24.73h5.22c9.68,0,14.4-7.31,14.4-15.56,0-6.32-3.29-9.18-10.5-9.18Z"/>
      <path class="cls-1" d="m701.18,0H0v176h679.78c-1.16-13.06-1.78-26.6-1.78-40.5,0-52.93,8.86-100.84,23.18-135.5ZM125.95,171.03c-1.54.44-3.4.88-5.57,1.32-2.17.44-4.69.66-7.56.66-4.49,0-8.46-.88-11.92-2.65-3.46-1.77-6.14-4.52-8.06-8.28-1.18-2.3-1.99-5.03-2.44-8.17h-.21c-3.6,5.37-8.66,10.02-15.17,13.96-6.51,3.93-14.84,5.9-24.99,5.9-7.65,0-14.6-1.31-20.86-3.92-6.25-2.61-11.2-6.53-14.84-11.75-3.64-5.22-5.46-11.7-5.46-19.42,0-9.27,2.15-16.39,6.46-21.35,4.3-4.97,10.26-8.62,17.88-10.98,7.61-2.35,16.42-4.16,26.43-5.41,6.33-.73,11.7-1.66,16.11-2.76,4.41-1.1,7.8-2.78,10.15-5.02,2.35-2.24,3.53-5.28,3.53-9.1,0-5.96-2.04-10.68-6.12-14.18-4.08-3.49-9.99-5.24-17.71-5.24-8.83,0-15.43,1.93-19.81,5.79-4.38,3.86-6.75,9.1-7.12,15.72H14.94c.37-6.91,2.41-13.33,6.12-19.26,3.71-5.92,9.23-10.7,16.55-14.35,7.32-3.64,16.57-5.46,27.75-5.46,6.25,0,11.95.52,17.1,1.54,5.15,1.03,9.67,2.72,13.57,5.08,5.37,3.16,9.51,7.56,12.41,13.19,2.91,5.63,4.36,12.49,4.36,20.58v53.96c0,4.27.62,7.5,1.88,9.71,1.25,2.21,3.46,3.31,6.62,3.31.73,0,1.45-.06,2.15-.17.7-.11,1.31-.28,1.82-.5h.66v17.21Zm36,.11l-42.15-121.38h26.26l19.53,61.13c1.32,4.05,2.61,8.37,3.86,12.97,1.25,4.6,2.39,8.92,3.42,12.97,1.03,4.05,2.17,8.61,3.42,13.68h.44c1.18-5.08,2.24-9.64,3.2-13.68.96-4.04,2.06-8.37,3.31-12.97,1.25-4.6,2.54-8.92,3.86-12.97l20.08-61.13h25.38l-43.26,121.38h-27.37Zm98.13-34.92c2.87,5.78,6.84,10.32,11.92,13.63s11.25,4.97,18.54,4.97,13.88-1.64,18.92-4.91c5.04-3.27,8.51-7.74,10.43-13.41h24.17c-1.77,7.36-5.08,13.89-9.93,19.59-4.85,5.7-10.98,10.17-18.37,13.41-7.39,3.24-15.91,4.86-25.55,4.86-12.58,0-23.38-2.85-32.39-8.55-9.01-5.7-15.91-13.37-20.69-23.01-4.78-9.64-7.17-20.41-7.17-32.33s2.46-22.57,7.39-32.17c4.93-9.6,11.83-17.25,20.69-22.95,8.86-5.7,19.15-8.55,30.84-8.55,8.97,0,16.92,1.58,23.83,4.75,6.91,3.16,12.84,7.54,17.77,13.13,5.44,6.11,9.49,13.59,12.14,22.46,2.65,8.87,3.97,18.63,3.97,29.3h-91.7c.59,7.43,2.32,14.03,5.19,19.81Zm190.77,21.19c-4.3,5.63-10.25,9.86-17.82,12.69-7.58,2.83-16.22,4.25-25.93,4.25-11.25,0-20.89-1.69-28.91-5.08-8.02-3.38-14.25-8.11-18.7-14.18-4.45-6.07-6.97-13.19-7.56-21.35h24.5c1.18,8.02,4.58,13.68,10.21,16.99,5.63,3.31,12.56,4.97,20.8,4.97,8.75,0,15.17-1.69,19.26-5.08,4.08-3.38,6.12-7.61,6.12-12.69,0-4.19-1.21-7.45-3.64-9.77-2.43-2.32-5.96-4.17-10.59-5.57-4.63-1.4-10.34-2.76-17.1-4.08-5.74-1.25-11.29-2.61-16.66-4.08-5.37-1.47-10.17-3.48-14.4-6.01-4.23-2.54-7.56-5.94-9.99-10.21-2.43-4.27-3.64-9.78-3.64-16.55,0-7.35,1.88-13.63,5.63-18.81s9.07-9.16,15.95-11.92c6.88-2.76,15.02-4.14,24.44-4.14,10.44,0,19.18,1.47,26.21,4.41,7.02,2.94,12.47,7.06,16.33,12.36,3.86,5.3,6.24,11.44,7.12,18.43h-24.06c-.66-3.82-2.02-7.04-4.08-9.66-2.06-2.61-4.89-4.6-8.5-5.96-3.61-1.36-8.06-2.04-13.35-2.04-7.43,0-12.95,1.51-16.55,4.52-3.6,3.02-5.41,6.77-5.41,11.26,0,3.83,1.29,6.79,3.86,8.88,2.57,2.1,6.2,3.75,10.87,4.97,4.67,1.21,10.28,2.48,16.83,3.81,5.88,1.1,11.53,2.41,16.94,3.92,5.41,1.51,10.22,3.6,14.46,6.29,4.23,2.69,7.6,6.31,10.1,10.87,2.5,4.56,3.75,10.45,3.75,17.66,0,8.31-2.15,15.28-6.46,20.91Zm44.44,13.74h-24.94V49.76h24.94v121.38Zm.44-142.35h-25.71V2.64h25.71v26.15Zm131.01,142.24c-1.54.44-3.4.88-5.57,1.32s-4.69.66-7.56.66c-4.49,0-8.46-.88-11.92-2.65-3.46-1.77-6.14-4.52-8.06-8.28-1.18-2.3-1.99-5.03-2.44-8.17h-.21c-3.61,5.37-8.66,10.02-15.17,13.96-6.51,3.93-14.84,5.9-24.99,5.9-7.65,0-14.6-1.31-20.86-3.92-6.25-2.61-11.2-6.53-14.84-11.75-3.64-5.22-5.46-11.7-5.46-19.42,0-9.27,2.15-16.39,6.46-21.35,4.3-4.97,10.26-8.62,17.88-10.98,7.61-2.35,16.42-4.16,26.43-5.41,6.33-.73,11.7-1.66,16.11-2.76s7.8-2.78,10.15-5.02c2.35-2.24,3.53-5.28,3.53-9.1,0-5.96-2.04-10.68-6.12-14.18-4.08-3.49-9.99-5.24-17.71-5.24-8.83,0-15.43,1.93-19.81,5.79-4.38,3.86-6.75,9.1-7.12,15.72h-23.72c.37-6.91,2.41-13.33,6.12-19.26,3.71-5.92,9.23-10.7,16.55-14.35,7.32-3.64,16.57-5.46,27.75-5.46,6.25,0,11.95.52,17.1,1.54,5.15,1.03,9.67,2.72,13.57,5.08,5.37,3.16,9.51,7.56,12.41,13.19,2.91,5.63,4.36,12.49,4.36,20.58v53.96c0,4.27.62,7.5,1.88,9.71,1.25,2.21,3.46,3.31,6.62,3.31.73,0,1.45-.06,2.15-.17.7-.11,1.31-.28,1.82-.5h.66v17.21Zm-3.83-121.82c-4.12,0-6.87-.44-9.78-1.54l.77-7.86c3.24.99,6.16,1.54,9.51,1.54,5.11,0,8.91-2.75,8.91-6.93,0-2.58-1.7-4.29-8.46-5.93l.44-1.76,9.01-10.17h-13.03l2.26-8.36h23.69l-.88,3.46-11.43,12.75c5.39,1.87,7.26,5.06,7.26,9.12,0,8.79-6.98,15.66-18.25,15.66Zm34.42-.55h-14.35l10.83-40.45h10.83c12.53,0,17.91,5.93,17.91,15.83,0,13.8-8.74,24.62-25.23,24.62Z"/>
    </g>
  </g>
</svg>